<?xml version="1.0" encoding="UTF-8"?>
<svg id="a" data-name="Camada 1" xmlns="http://www.w3.org/2000/svg" viewBox="0 0 902.47 374.03">
  <defs>
    <style>
      .b {
        fill: #b1982a;
      }

      .c {
        fill: #989898;
      }
    </style>
  </defs>
  <path class="c" d="M378.21,137.37h-36.36v99.29h18.32v-83.77h14.96c10.23,0,16.13,6.78,15.94,17.27-.17,9.21-7.76,16.57-16.97,16.57h-1.95c-3.65,0-6.61,2.96-6.61,6.61v9.06h12.67c18.6,0,31.61-13.42,31.61-32.72s-13.01-32.31-31.61-32.31Z"/>
  <path class="c" d="M453.31,163.66c21.82,0,39.16,15.52,39.16,37.34s-17.34,37.34-39.16,37.34-39.02-15.38-39.02-37.34,17.34-37.34,39.02-37.34Zm0,59.57c11.61,0,21.26-8.95,21.26-22.24s-9.65-22.24-21.26-22.24-21.12,9.09-21.12,22.24,9.65,22.24,21.12,22.24Z"/>
  <path class="c" d="M566.6,221.7c-3.36,0-4.75-.56-5.87-2.66l-8.11-15.38c-2.52-4.62-5.04-5.59-5.04-5.59v-.28s2.24-1.12,5.31-5.59l18.04-26.85h-19.72l-14.54,22.52c-1.54,2.24-4.48,2.66-6.71,2.66h-5.31v-45.03c0-6.57-2.94-8.11-9.51-8.11h-8.43v16.99c.1,.35,.18,.74,.18,1.19v81.11h17.76v-31.19h3.91c2.24,0,5.17,.14,6.57,2.66l11.89,22.38c2.8,5.17,5.17,6.15,11.19,6.15h13.15v-14.96h-4.75Z"/>
  <path class="c" d="M789.98,137.37h-8.77v9.76c0,3.65,2.96,6.61,6.61,6.61h8.77v-9.76c0-3.65-2.96-6.61-6.61-6.61Z"/>
  <path class="c" d="M698.7,164.36c-10.91,0-19.44,8.11-22.65,18.32h-.28s.28-1.82,.28-4.47v-4.2c0-6.01-3.22-8.67-9.51-8.67h-7.55v71.32h17.62v-28.25c0-4.2,.56-8.11,1.54-11.61,3.22-10.63,11.89-14.96,19.44-14.96,2.52,0,4.33,.28,4.33,.28v-17.48s-1.68-.28-3.22-.28Z"/>
  <path class="c" d="M780.09,165.34h15.07c1.41,0,2.55,1.14,2.55,2.55v68.77h-15.07c-1.41,0-2.55-1.14-2.55-2.55v-68.77h0Z"/>
  <path class="c" d="M761.21,137.37h-47.65v15.52h.1v83.77h18.32v-40.14h26.57v-15.52h-26.57v-28.11h38.74v-8.92c0-3.65-2.96-6.61-6.61-6.61h-2.9Z"/>
  <path class="c" d="M600.24,198.37v5.72h43.71s.41-4.48,.41-6.58c0-18.88-11.19-33.85-31.59-33.85-1.36,0-2.69,.06-4,.19-.44,.04-.86,.13-1.3,.18-.85,.11-1.7,.21-2.52,.36-.5,.1-.97,.24-1.46,.35-.73,.17-1.47,.33-2.17,.54-.51,.15-.99,.34-1.48,.51-.66,.23-1.32,.44-1.96,.71-.5,.2-.96,.45-1.44,.67-.6,.28-1.21,.55-1.79,.86-.47,.26-.92,.55-1.38,.82-.55,.33-1.11,.66-1.63,1.02-.44,.31-.86,.64-1.29,.97-.5,.38-1.01,.76-1.48,1.17-.41,.35-.79,.73-1.19,1.1-.45,.43-.91,.85-1.34,1.31-.37,.4-.72,.82-1.07,1.23-.4,.47-.81,.94-1.19,1.44-.33,.44-.64,.9-.96,1.36-.35,.52-.71,1.03-1.03,1.57-.29,.48-.56,.98-.83,1.47-.3,.56-.6,1.11-.88,1.69-.25,.52-.47,1.05-.69,1.58-.25,.59-.49,1.19-.71,1.8-.2,.55-.37,1.12-.55,1.68-.19,.63-.38,1.26-.55,1.91-.15,.59-.28,1.18-.4,1.78-.14,.66-.26,1.33-.37,2.01-.1,.62-.17,1.24-.25,1.87-.08,.69-.14,1.39-.19,2.1-.04,.65-.07,1.3-.08,1.95,0,.38-.05,.74-.05,1.12s.03,.8,.04,1.2c0,.29-.01,.57,0,.87,.01,.01,.02,.02,.03,.03,.96,19.35,15.43,35.25,38.25,35.25,17.74,0,28.67-10.77,28.67-10.77l-7.43-12.3s-8.52,7.95-19.99,7.95c-.73,0-1.42-.03-2.15-.08-.21,0-.44,.03-.65,.03-10.26,0-18.7-8.75-19.89-20.07-.1-.91-.16-1.84-.16-2.77,0-9.48,5.05-17.58,12.25-21.05,.62-.34,1.29-.65,1.94-.88,.28-.1,.57-.21,.85-.31,.1-.05,.23-.08,.34-.1,.47-.16,.93-.26,1.4-.34,.28-.08,.6-.13,.88-.16,.6-.08,1.22-.13,1.84-.13,.28,0,.54,0,.83,.05,.26,.05,.52,.1,.8,.13,.34,.03,.65,.05,.98,.08,.03,0,.05,.03,.08,0,5.96,1.29,10.46,6.71,10.72,14.14h-19.34c-3.65,0-6.61,2.96-6.61,6.61Z"/>
  <g>
    <path class="b" d="M281.03,171.92c-2.03-10.33-6.1-19.93-11.78-28.37-5.67-8.42-12.93-15.68-21.35-21.35-8.44-5.68-18.05-9.75-28.37-11.78-4.89-.96-9.93-1.48-15.1-1.48s-10.21,.52-15.1,1.48c-10.33,2.03-19.93,6.1-28.37,11.78-8.42,5.67-15.68,12.93-21.35,21.35-5.68,8.44-9.75,18.05-11.78,28.37-.96,4.89-1.48,9.93-1.48,15.1s.52,10.21,1.48,15.1c2.03,10.33,6.1,19.93,11.78,28.37,5.67,8.42,12.93,15.68,21.35,21.35,8.44,5.68,18.05,9.75,28.37,11.78,4.89,.96,9.93,1.48,15.1,1.48s10.21-.52,15.1-1.48c10.33-2.03,19.93-6.1,28.37-11.78,8.42-5.67,15.68-12.93,21.35-21.35,5.68-8.44,9.75-18.05,11.78-28.37,.96-4.89,1.48-9.93,1.48-15.1s-.52-10.21-1.48-15.1Zm-47.89,58.4c-11.1,0-21.48-4.68-26.47-13.04,1.59,11.37,4.35,28.43,11.4,33.34h-27.29c7.05-4.91,9.82-21.97,11.41-33.34-4.99,8.36-15.37,13.04-26.47,13.04-15.85,0-28.71-12.85-28.71-28.71,0-18.15,13.78-31.02,30.98-46.9,21.45-19.8,26.42-31.3,26.42-31.3h.02s4.97,11.5,26.42,31.3c17.2,15.88,30.98,28.75,30.98,46.9,0,15.85-12.85,28.71-28.71,28.71Z"/>
    <g>
      <path class="b" d="M222.06,285.64c14.54-2.58,28-8.29,39.64-16.42l-11.3-14.23c-9.02,6.12-19.33,10.48-30.41,12.62l2.07,18.04Z"/>
      <path class="b" d="M303.05,169.39c-2.58-14.54-8.29-28-16.42-39.64l-14.23,11.3c6.12,9.02,10.48,19.33,12.62,30.41l18.04-2.07Z"/>
      <path class="b" d="M186.81,88.4c-14.54,2.58-28,8.29-39.64,16.42l11.3,14.23c9.02-6.12,19.33-10.48,30.41-12.62l-2.07-18.04Z"/>
      <path class="b" d="M261.7,104.82c-11.65-8.13-25.1-13.84-39.64-16.42l-2.07,18.04c11.09,2.14,21.39,6.49,30.41,12.62l11.3-14.23Z"/>
      <path class="b" d="M122.23,129.75c-8.13,11.65-13.84,25.1-16.42,39.64l18.04,2.07c2.14-11.09,6.49-21.39,12.62-30.41l-14.23-11.3Z"/>
      <path class="b" d="M272.39,232.98l14.23,11.3c8.13-11.65,13.84-25.1,16.42-39.64l-18.04-2.07c-2.14,11.09-6.49,21.39-12.62,30.41Z"/>
      <path class="b" d="M147.16,269.21c11.65,8.13,25.1,13.84,39.64,16.42l2.07-18.04c-11.09-2.14-21.39-6.49-30.41-12.62l-11.3,14.23Z"/>
      <path class="b" d="M105.81,204.64c2.58,14.54,8.29,28,16.42,39.64l14.23-11.3c-6.12-9.02-10.48-19.33-12.62-30.41l-18.04,2.07Z"/>
    </g>
    <g>
      <path class="b" d="M202.95,88.59v-1.11h2.67v1.11c2.31,.34,3.5,1.62,3.5,3.65v.47h-3.08v-.62c0-1.07-.59-1.47-1.63-1.47s-1.63,.4-1.63,1.47c0,3.07,6.38,3.22,6.38,7.49,0,2.03-1.22,3.33-3.53,3.67v1.09h-2.67v-1.09c-2.34-.34-3.53-1.64-3.53-3.67v-1.02h3.08v1.17c0,1.07,.65,1.45,1.69,1.45s1.69-.38,1.69-1.45c0-3.07-6.38-3.22-6.38-7.49,0-2.01,1.16-3.29,3.44-3.65Z"/>
      <path class="b" d="M202.95,270.8v-1.11h2.67v1.11c2.31,.34,3.5,1.62,3.5,3.65v.47h-3.08v-.62c0-1.07-.59-1.47-1.63-1.47s-1.63,.4-1.63,1.47c0,3.07,6.38,3.22,6.38,7.49,0,2.03-1.22,3.33-3.53,3.67v1.09h-2.67v-1.09c-2.34-.34-3.53-1.64-3.53-3.67v-1.02h3.08v1.17c0,1.07,.65,1.45,1.69,1.45s1.69-.38,1.69-1.45c0-3.07-6.38-3.22-6.38-7.49,0-2.01,1.16-3.29,3.44-3.65Z"/>
      <path class="b" d="M105.87,188.35h-1.11v-2.67h1.11c.34-2.31,1.62-3.5,3.65-3.5h.47v3.08h-.62c-1.07,0-1.47,.59-1.47,1.63s.4,1.63,1.47,1.63c3.07,0,3.22-6.38,7.49-6.38,2.03,0,3.33,1.22,3.67,3.53h1.09v2.67h-1.09c-.34,2.34-1.64,3.53-3.67,3.53h-1.02v-3.08h1.17c1.07,0,1.45-.65,1.45-1.69s-.38-1.69-1.45-1.69c-3.07,0-3.22,6.38-7.49,6.38-2.01,0-3.29-1.16-3.65-3.44Z"/>
      <path class="b" d="M288.07,188.35h-1.11v-2.67h1.11c.34-2.31,1.62-3.5,3.65-3.5h.47v3.08h-.62c-1.07,0-1.47,.59-1.47,1.63s.4,1.63,1.47,1.63c3.07,0,3.22-6.38,7.49-6.38,2.03,0,3.33,1.22,3.67,3.53h1.09v2.67h-1.09c-.34,2.34-1.64,3.53-3.67,3.53h-1.02v-3.08h1.17c1.07,0,1.45-.65,1.45-1.69s-.38-1.69-1.45-1.69c-3.07,0-3.22,6.38-7.49,6.38-2.01,0-3.29-1.16-3.65-3.44Z"/>
      <path class="b" d="M141.43,249.49c.95-1.23,.44-3.06-.81-4.23-1.35-1.27-3.52-1.46-5.24,.26-1.55,1.55-1.52,3.9-1.35,6.46,.17,2.61,.1,4.21,.07,4.85,0,0,0,0,0,0,0,0,0,0,0,0,0,0,0,0,0,0,0,0,0,0,0,0,.64-.03,2.23-.11,4.85,.06,2.57,.17,4.91,.2,6.46-1.35,1.72-1.72,1.53-3.89,.26-5.24-1.17-1.25-3-1.77-4.23-.81Z"/>
      <path class="b" d="M141.35,118.76c-1.04,1.04-.86,2.02-.97,2.02-.11,0,.35-1.63-1.13-3.12-1.3-1.3-3.4-1.3-4.7,0-1.3,1.3-1.3,3.4,0,4.7,1.47,1.47,3.11,1.03,3.11,1.15,0,.12-1.01-.05-2.01,.96-1.3,1.3-1.3,3.4,0,4.7,0,0,0,0,0,0,0,0,0,0,0,0,.16,.16,.32,.29,.5,.4,1.29,.85,3.04,.71,4.18-.42,2.4-2.4-.41-4.68,.34-5.06,.9,1.08,3.16,3.88,3.2,5l2.1-2.1c-1.12-.04-3.93-2.3-5-3.2,.37-.77,2.64,2.09,5.06-.34,1.14-1.14,1.28-2.89,.42-4.18-.12-.18-.25-.34-.41-.5h0s0-.02,0-.02c-1.3-1.3-3.4-1.3-4.7,0Z"/>
      <polygon class="b" points="264.85 119.12 263.76 128.8 273.43 127.7 274.53 118.03 264.85 119.12"/>
      <path class="b" d="M268.59,247.64c-3.45,.14-4.83-.41-4.83-.41h0s.55,1.38,.41,4.83c-.11,2.77-.19,5,1.33,6.52,1.33,1.33,3.48,1.33,4.81,0,.93-.93,1.41-2.19,1.12-3.31,.82,1.08,2.02,2.74,1.84,3.75l2.28-2.28c-1,.18-2.66-1.02-3.74-1.84,1.12,.28,2.38-.2,3.31-1.12,1.33-1.33,1.33-3.48,0-4.81-1.52-1.52-3.75-1.44-6.52-1.33Z"/>
    </g>
    <path class="b" d="M208.18,157.11h-22v60.09h11.09v-50.7h9.06c6.19,0,9.76,4.11,9.65,10.45-.1,5.57-4.69,10.03-10.27,10.03h-1.18c-2.21,0-4,1.79-4,4v5.48h7.67c11.26,0,19.13-8.12,19.13-19.8s-7.87-19.55-19.13-19.55Z"/>
  </g>
</svg>