<?xml version="1.0" encoding="UTF-8"?>
<svg id="a" data-name="Camada 1" xmlns="http://www.w3.org/2000/svg" viewBox="0 0 300.61 258.75">
  <defs>
    <style>
      .b {
        fill: #fff;
      }

      .c {
        fill: #b1982a;
      }
    </style>
  </defs>
  <circle class="b" cx="147.47" cy="129.16" r="113.7"/>
  <g>
    <path class="c" d="M224.21,114.06c-2.03-10.33-6.1-19.93-11.78-28.37-5.67-8.42-12.93-15.68-21.35-21.35-8.44-5.68-18.05-9.75-28.37-11.78-4.89-.96-9.93-1.48-15.1-1.48s-10.21,.52-15.1,1.48c-10.33,2.03-19.93,6.1-28.37,11.78-8.42,5.67-15.68,12.93-21.35,21.35-5.68,8.44-9.75,18.05-11.78,28.37-.96,4.89-1.48,9.93-1.48,15.1s.52,10.21,1.48,15.1c2.03,10.33,6.1,19.93,11.78,28.37,5.67,8.42,12.93,15.68,21.35,21.35,8.44,5.68,18.05,9.75,28.37,11.78,4.89,.96,9.93,1.48,15.1,1.48s10.21-.52,15.1-1.48c10.33-2.03,19.93-6.1,28.37-11.78,8.42-5.67,15.68-12.93,21.35-21.35,5.68-8.44,9.75-18.05,11.78-28.37,.96-4.89,1.48-9.93,1.48-15.1s-.52-10.21-1.48-15.1Zm-47.89,58.4c-11.1,0-21.48-4.68-26.47-13.04,1.59,11.37,4.35,28.43,11.4,33.34h-27.29c7.05-4.91,9.82-21.97,11.41-33.34-4.99,8.36-15.37,13.04-26.47,13.04-15.85,0-28.71-12.85-28.71-28.71,0-18.15,13.78-31.02,30.98-46.9,21.45-19.8,26.42-31.3,26.42-31.3h.02s4.97,11.5,26.42,31.3c17.2,15.88,30.98,28.75,30.98,46.9,0,15.85-12.85,28.71-28.71,28.71Z"/>
    <g>
      <path class="c" d="M165.24,227.78c14.54-2.58,28-8.29,39.64-16.42l-11.3-14.23c-9.02,6.12-19.33,10.48-30.41,12.62l2.07,18.04Z"/>
      <path class="c" d="M246.23,111.53c-2.58-14.54-8.29-28-16.42-39.64l-14.23,11.3c6.12,9.02,10.48,19.33,12.62,30.41l18.04-2.07Z"/>
      <path class="c" d="M129.98,30.54c-14.54,2.58-28,8.29-39.64,16.42l11.3,14.23c9.02-6.12,19.33-10.48,30.41-12.62l-2.07-18.04Z"/>
      <path class="c" d="M204.88,46.96c-11.65-8.13-25.1-13.84-39.64-16.42l-2.07,18.04c11.09,2.14,21.39,6.49,30.41,12.62l11.3-14.23Z"/>
      <path class="c" d="M65.41,71.89c-8.13,11.65-13.84,25.1-16.42,39.64l18.04,2.07c2.14-11.09,6.49-21.39,12.62-30.41l-14.23-11.3Z"/>
      <path class="c" d="M215.57,175.13l14.23,11.3c8.13-11.65,13.84-25.1,16.42-39.64l-18.04-2.07c-2.14,11.09-6.49,21.39-12.62,30.41Z"/>
      <path class="c" d="M90.34,211.36c11.65,8.13,25.1,13.84,39.64,16.42l2.07-18.04c-11.09-2.14-21.39-6.49-30.41-12.62l-11.3,14.23Z"/>
      <path class="c" d="M48.99,146.78c2.58,14.54,8.29,28,16.42,39.64l14.23-11.3c-6.12-9.02-10.48-19.33-12.62-30.41l-18.04,2.07Z"/>
    </g>
    <g>
      <path class="c" d="M146.13,30.74v-1.11h2.67v1.11c2.31,.34,3.5,1.62,3.5,3.65v.47h-3.08v-.62c0-1.07-.59-1.47-1.63-1.47s-1.63,.4-1.63,1.47c0,3.07,6.38,3.22,6.38,7.49,0,2.03-1.22,3.33-3.53,3.67v1.09h-2.67v-1.09c-2.34-.34-3.53-1.64-3.53-3.67v-1.02h3.08v1.17c0,1.07,.65,1.45,1.69,1.45s1.69-.38,1.69-1.45c0-3.07-6.38-3.22-6.38-7.49,0-2.01,1.16-3.29,3.44-3.65Z"/>
      <path class="c" d="M146.13,212.94v-1.11h2.67v1.11c2.31,.34,3.5,1.62,3.5,3.65v.47h-3.08v-.62c0-1.07-.59-1.47-1.63-1.47s-1.63,.4-1.63,1.47c0,3.07,6.38,3.22,6.38,7.49,0,2.03-1.22,3.33-3.53,3.67v1.09h-2.67v-1.09c-2.34-.34-3.53-1.64-3.53-3.67v-1.02h3.08v1.17c0,1.07,.65,1.45,1.69,1.45s1.69-.38,1.69-1.45c0-3.07-6.38-3.22-6.38-7.49,0-2.01,1.16-3.29,3.44-3.65Z"/>
      <path class="c" d="M49.04,130.49h-1.11v-2.67h1.11c.34-2.31,1.62-3.5,3.65-3.5h.47v3.08h-.62c-1.07,0-1.47,.59-1.47,1.63s.4,1.63,1.47,1.63c3.07,0,3.22-6.38,7.49-6.38,2.03,0,3.33,1.22,3.67,3.53h1.09v2.67h-1.09c-.34,2.34-1.64,3.53-3.67,3.53h-1.02v-3.08h1.17c1.07,0,1.45-.65,1.45-1.69s-.38-1.69-1.45-1.69c-3.07,0-3.22,6.38-7.49,6.38-2.01,0-3.29-1.16-3.65-3.44Z"/>
      <path class="c" d="M231.25,130.49h-1.11v-2.67h1.11c.34-2.31,1.62-3.5,3.65-3.5h.47v3.08h-.62c-1.07,0-1.47,.59-1.47,1.63s.4,1.63,1.47,1.63c3.07,0,3.22-6.38,7.49-6.38,2.03,0,3.33,1.22,3.67,3.53h1.09v2.67h-1.09c-.34,2.34-1.64,3.53-3.67,3.53h-1.02v-3.08h1.17c1.07,0,1.45-.65,1.45-1.69s-.38-1.69-1.45-1.69c-3.07,0-3.22,6.38-7.49,6.38-2.01,0-3.29-1.16-3.65-3.44Z"/>
      <path class="c" d="M84.6,191.63c.95-1.23,.44-3.06-.81-4.23-1.35-1.27-3.52-1.46-5.24,.26-1.55,1.55-1.52,3.9-1.35,6.46,.17,2.61,.1,4.21,.07,4.85,0,0,0,0,0,0,0,0,0,0,0,0,0,0,0,0,0,0,0,0,0,0,0,0,.64-.03,2.23-.11,4.85,.06,2.57,.17,4.91,.2,6.46-1.35,1.72-1.72,1.53-3.89,.26-5.24-1.17-1.25-3-1.77-4.23-.81Z"/>
      <path class="c" d="M84.52,60.9c-1.04,1.04-.86,2.02-.97,2.02-.11,0,.35-1.63-1.13-3.12-1.3-1.3-3.4-1.3-4.7,0-1.3,1.3-1.3,3.4,0,4.7,1.47,1.47,3.11,1.03,3.11,1.15,0,.12-1.01-.05-2.01,.96-1.3,1.3-1.3,3.4,0,4.7,0,0,0,0,0,0,0,0,0,0,0,0,.16,.16,.32,.29,.5,.4,1.29,.85,3.04,.71,4.18-.42,2.4-2.4-.41-4.68,.34-5.06,.9,1.08,3.16,3.88,3.2,5l2.1-2.1c-1.12-.04-3.93-2.3-5-3.2,.37-.77,2.64,2.09,5.06-.34,1.14-1.14,1.28-2.89,.42-4.18-.12-.18-.25-.34-.41-.5h0s0-.02,0-.02c-1.3-1.3-3.4-1.3-4.7,0Z"/>
      <polygon class="c" points="208.02 61.26 206.93 70.94 216.61 69.85 217.7 60.17 208.02 61.26"/>
      <path class="c" d="M211.77,189.78c-3.45,.14-4.83-.41-4.83-.41h0s.55,1.38,.41,4.83c-.11,2.77-.19,5,1.33,6.52,1.33,1.33,3.48,1.33,4.81,0,.93-.93,1.41-2.19,1.12-3.31,.82,1.08,2.02,2.74,1.84,3.75l2.28-2.28c-1,.18-2.66-1.02-3.74-1.84,1.12,.28,2.38-.2,3.31-1.12,1.33-1.33,1.33-3.48,0-4.81-1.52-1.52-3.75-1.44-6.52-1.33Z"/>
    </g>
    <path class="c" d="M151.36,99.25h-22v60.09h11.09v-50.7h9.06c6.19,0,9.76,4.11,9.65,10.45-.1,5.57-4.69,10.03-10.27,10.03h-1.18c-2.21,0-4,1.79-4,4v5.48h7.67c11.26,0,19.13-8.12,19.13-19.8s-7.87-19.55-19.13-19.55Z"/>
  </g>
</svg>